<svg width="236" height="235" xmlns="http://www.w3.org/2000/svg" xmlns:xlink="http://www.w3.org/1999/xlink" overflow="hidden"><defs><clipPath id="clip0"><rect x="812" y="310" width="236" height="235"/></clipPath><clipPath id="clip1"><rect x="867" y="357" width="139" height="140"/></clipPath><clipPath id="clip2"><rect x="867" y="357" width="139" height="140"/></clipPath><clipPath id="clip3"><rect x="867" y="357" width="139" height="140"/></clipPath></defs><g clip-path="url(#clip0)" transform="translate(-812 -310)"><path d="M813 427C813 362.383 865.383 310 930 310 994.617 310 1047 362.383 1047 427 1047 491.617 994.617 544 930 544 865.383 544 813 491.617 813 427Z" fill="#F6921E" fill-rule="evenodd"/><path d="M930.045 310.254C934.084 310.254 938.075 310.458 942.008 310.858L949.904 312.063 813.322 432.854 813.04 427.259C813.04 362.639 865.425 310.254 930.045 310.254Z" fill="#FFB600" fill-rule="evenodd"/><path d="M1004.85 374.527 1047.2 423.484 1047.39 427.259C1047.39 491.879 995.003 544.264 930.383 544.264L920.774 543.779 873.013 488.56Z" fill="#ED6C0C" fill-rule="evenodd"/><path d="M974.781 391.849 1040.16 467.435 1038.19 472.803C1026.35 500.799 1003.92 523.228 975.927 535.069L967.951 537.989 898.566 457.77Z" fill="#D85107" fill-rule="evenodd"/><g clip-path="url(#clip1)"><g clip-path="url(#clip2)"><g clip-path="url(#clip3)"><path d="M139 18.6067 129.697 9.30323 109.607 21.7076 126.596 31.0108Z" fill="#00CC76" transform="matrix(1 0 0 1.00719 867 357)"/><path d="M120.394 0 107.989 12.4044 113.45 25.5499 129.697 9.30323Z" fill="#C3DC4B" transform="matrix(1 0 0 1.00719 867 357)"/><path d="M43.636 113.971 62.2424 95.3643 52.9392 78.3762 6.42251 132.577C14.9859 141.141 28.8699 141.141 37.4334 132.577 42.506 127.505 44.5728 120.565 43.636 113.971Z" fill="#F7ECD9" transform="matrix(1 0 0 1.00719 867 357)"/><path d="M43.636 76.7576 25.0295 95.3641C18.4349 94.4271 11.4955 96.4937 6.42278 101.566-2.14065 110.13-2.14065 124.014 6.42278 132.577L56.7818 82.2182Z" fill="#FFF5F5" transform="matrix(1 0 0 1.00719 867 357)"/><path d="M52.9392 86.0608 62.2427 95.3641 83.7098 73.897 74.4065 56.9086Z" fill="#00CC76" transform="matrix(1 0 0 1.00719 867 357)"/><path d="M78.2489 60.7511 65.103 55.2902 43.636 76.7576 52.9392 86.0608Z" fill="#C3DC4B" transform="matrix(1 0 0 1.00719 867 357)"/><path d="M83.7098 73.897 135.899 40.3143 117.292 21.7076 117.292 21.7079 87.4831 43.832 74.4065 64.5935Z" fill="#009986" transform="matrix(1 0 0 1.00719 867 357)"/><path d="M117.292 21.7079 88.6421 33.8286 65.103 55.2902 74.4065 64.5935Z" fill="#00CC76" transform="matrix(1 0 0 1.00719 867 357)"/><path d="M98.6857 3.10117 65.103 55.2902 117.292 21.7076Z" fill="#C3DC4B" transform="matrix(1 0 0 1.00719 867 357)"/></g></g></g></g></svg>